<svg version="1.1" id="Layer_1" xmlns="http://www.w3.org/2000/svg" xmlns:xlink="http://www.w3.org/1999/xlink" x="0px" y="0px"
	 width="100%" viewBox="0 0 695 159" enable-background="new 0 0 695 159" xml:space="preserve">
<path fill="#274952" opacity="1.000000" stroke="none" 
	d="
M506.000000,0.999997 
	C569.284790,1.000000 632.569580,1.000000 695.927185,1.000000 
	C695.927185,53.910751 695.927185,106.821632 695.927185,160.000000 
	C622.312683,160.000000 548.625000,160.000000 474.428833,159.623581 
	C473.496552,157.816010 473.523529,155.690414 472.571716,155.072556 
	C468.184387,152.224503 468.778961,144.773544 462.161377,144.012741 
	C461.414154,143.926834 460.925293,142.191772 460.186340,141.333618 
	C456.747864,137.340271 453.300720,133.352539 449.751801,129.458359 
	C449.272308,128.932205 448.143494,129.055786 447.415314,128.683182 
	C446.550781,128.240799 445.229248,127.704559 445.083832,127.005531 
	C444.211578,122.812943 441.001831,121.002136 437.870361,118.765663 
	C435.535095,117.097824 433.932892,114.403549 432.468872,112.103165 
	C454.141998,112.039932 475.350433,112.039932 496.880310,112.039932 
	C496.880310,77.245544 496.880310,43.195454 496.987946,8.815754 
	C498.887848,4.824759 501.370850,5.011526 504.267914,7.150006 
	C506.742310,8.976504 509.126038,9.724943 511.081909,6.456693 
	C509.264435,4.505158 507.632202,2.752576 506.000000,0.999997 
M548.862000,39.240253 
	C548.862000,42.670830 548.862000,46.101402 548.862000,49.768299 
	C543.012573,50.189278 538.144836,50.539600 532.782715,50.925510 
	C532.782715,43.195057 532.747375,36.224754 532.803101,29.255180 
	C532.821106,27.007692 532.587524,25.226240 529.650391,25.476101 
	C523.878174,25.967142 518.100525,26.394018 511.617493,26.902996 
	C511.617493,49.717438 511.617493,72.127846 511.617493,94.651314 
	C511.709778,94.695824 511.990631,94.942009 512.281860,94.954933 
	C515.940063,95.117371 519.599304,95.257217 523.259033,95.381157 
	C531.564941,95.662453 531.557007,95.657242 531.866211,87.422638 
	C532.106567,81.020767 532.370483,74.619781 532.627869,68.118546 
	C537.127136,68.118546 540.774475,68.262894 544.404785,68.076370 
	C547.773621,67.903282 548.708130,69.459007 548.649902,72.562035 
	C548.516174,79.690712 548.607605,86.823624 548.607605,94.238220 
	C555.667786,95.193802 562.016663,96.053116 568.377319,96.914024 
	C568.377319,73.358406 568.377319,50.289371 568.377319,26.661938 
	C561.844177,26.224846 555.808044,25.821003 548.872620,25.356995 
	C548.872620,30.077885 548.872620,34.187401 548.862000,39.240253 
M621.439392,92.793449 
	C621.710815,86.579643 621.982178,80.365837 622.276550,73.625870 
	C612.406860,74.073166 603.361511,74.483093 594.031677,74.905914 
	C593.774719,72.487717 593.571899,70.578865 593.339722,68.393654 
	C601.060974,67.592888 608.295715,66.842575 615.815247,66.062729 
	C616.069946,60.587059 616.307556,55.479481 616.564453,49.957733 
	C614.513000,49.701824 612.738037,49.377102 610.950500,49.276978 
	C605.798645,48.988407 600.624268,48.961910 595.498535,48.440945 
	C594.152771,48.304157 592.951538,46.745316 591.683899,45.839531 
	C591.978882,45.450615 592.273804,45.061703 592.568787,44.672791 
	C600.655029,44.672791 608.741333,44.672791 617.283936,44.672791 
	C618.178894,38.370380 619.072998,32.074005 620.001770,25.533272 
	C603.575989,25.533272 587.842346,25.533272 571.395508,25.533272 
	C572.405151,48.837650 573.399963,71.797806 574.415039,95.226425 
	C590.329407,94.459877 605.441162,93.731995 621.439392,92.793449 
M670.371338,33.130688 
	C658.813904,21.495834 641.074646,22.597422 627.971191,28.275070 
	C626.623291,28.859112 625.606934,31.699951 625.549561,33.528519 
	C625.178955,45.337006 625.077942,57.154842 624.968994,68.970352 
	C624.895813,76.905594 624.955078,84.842064 624.955078,93.215866 
	C630.646484,93.603134 636.100952,94.156563 641.558533,94.189148 
	C642.627441,94.195534 644.514954,92.267700 644.635681,91.089615 
	C645.030457,87.237137 644.783813,83.318932 644.783813,79.462379 
	C645.876099,79.462379 646.118408,79.404274 646.160156,79.471230 
	C646.676331,80.298996 647.233887,81.111809 647.646912,81.991356 
	C652.842590,93.056343 661.990601,98.046555 673.750366,99.201065 
	C676.678955,99.488579 678.012634,98.722443 678.122681,95.554359 
	C678.249207,91.910133 678.674683,88.236511 679.401978,84.663528 
	C680.213196,80.678329 679.455566,78.923126 674.859741,78.798767 
	C670.738647,78.687263 666.347229,77.736832 664.460632,72.972031 
	C679.827271,62.641590 682.243713,46.892139 670.371338,33.130688 
z"/>
<path fill="#274952" opacity="1.000000" stroke="none" 
	d="
M222.000000,160.000000 
	C148.333313,160.000000 74.666626,160.000000 1.000000,160.000000 
	C1.000000,150.236893 1.000000,140.587097 1.391124,130.449921 
	C4.318248,129.220963 6.937962,128.683380 9.368894,127.685783 
	C12.356229,126.459854 12.294419,124.696167 10.103036,122.365318 
	C8.848879,121.031334 8.311120,119.023819 7.450817,117.319542 
	C9.137455,116.550201 10.794783,115.193382 12.515522,115.107529 
	C23.110233,114.578926 33.717457,114.243347 44.324291,114.040443 
	C49.463970,113.942123 55.258839,112.532806 57.987289,121.362602 
	C60.769802,112.545158 66.555313,114.072067 71.700706,114.016022 
	C78.009995,113.947281 84.325180,114.129700 90.627686,113.911331 
	C92.435394,113.848701 94.208092,112.775459 96.461502,112.098572 
	C131.837952,112.022202 166.749756,111.992172 201.661530,112.011307 
	C222.439484,112.022697 243.217422,112.111404 263.888367,112.478600 
	C262.251740,114.509193 260.867584,116.389336 259.163849,117.911819 
	C254.911957,121.711426 250.502609,125.334427 246.193314,129.070770 
	C245.719910,129.481216 245.566788,130.243774 245.126221,130.712433 
	C243.417709,132.529877 241.627548,134.270554 239.918564,136.087570 
	C238.841797,137.232407 237.822784,138.436005 236.837753,139.661407 
	C235.927917,140.793243 235.348419,142.440720 234.191483,143.082657 
	C227.426941,146.835968 224.547592,153.274475 222.000000,160.000000 
z"/>
<path fill="#2A4C54" opacity="1.000000" stroke="none" 
	d="
M222.468658,160.000000 
	C224.547592,153.274475 227.426941,146.835968 234.191483,143.082657 
	C235.348419,142.440720 235.927917,140.793243 236.837753,139.661407 
	C237.822784,138.436005 238.841797,137.232407 239.918564,136.087570 
	C241.627548,134.270554 243.417709,132.529877 245.126221,130.712433 
	C245.566788,130.243774 245.719910,129.481216 246.193314,129.070770 
	C250.502609,125.334427 254.911957,121.711426 259.163849,117.911819 
	C260.867584,116.389336 262.251740,114.509193 264.353119,112.411621 
	C304.826813,112.019463 344.728699,111.990479 384.630615,112.004059 
	C400.421814,112.009438 416.213043,112.109451 432.004211,112.166382 
	C433.932892,114.403549 435.535095,117.097824 437.870361,118.765663 
	C441.001831,121.002136 444.211578,122.812943 445.083832,127.005531 
	C445.229248,127.704559 446.550781,128.240799 447.415314,128.683182 
	C448.143494,129.055786 449.272308,128.932205 449.751801,129.458359 
	C453.300720,133.352539 456.747864,137.340271 460.186340,141.333618 
	C460.925293,142.191772 461.414154,143.926834 462.161377,144.012741 
	C468.778961,144.773544 468.184387,152.224503 472.571716,155.072556 
	C473.523529,155.690414 473.496552,157.816010 473.960205,159.623581 
	C390.312439,160.000000 306.624878,160.000000 222.468658,160.000000 
M324.945770,134.558502 
	C323.837402,133.361374 322.729065,132.164246 320.864624,130.150482 
	C320.864624,137.842972 320.864624,143.836777 320.864624,149.830597 
	C321.359406,149.842255 321.854187,149.853912 322.348938,149.865570 
	C322.569763,145.917114 322.790588,141.968643 323.044250,137.432663 
	C327.268890,141.349030 327.722382,147.575195 332.971863,150.366730 
	C332.971863,143.595154 332.971863,137.602722 332.971863,131.610306 
	C332.457611,131.593353 331.943329,131.576416 331.429077,131.559479 
	C331.180298,135.429047 330.931519,139.298615 330.682770,143.168167 
	C330.375183,143.221237 330.067596,143.274307 329.760010,143.327362 
	C328.330505,140.577194 326.901001,137.827026 324.945770,134.558502 
M339.116455,140.557236 
	C338.178284,143.583237 337.240112,146.609222 336.104340,150.272598 
	C339.118927,147.853409 341.367279,144.641434 343.584808,144.662598 
	C345.835205,144.684052 348.055145,147.897186 351.423035,150.634781 
	C349.127838,143.876572 347.238190,138.201447 345.138336,132.605179 
	C345.067078,132.415207 342.199158,132.634613 341.811249,133.324631 
	C340.692596,135.314346 340.176727,137.642914 339.116455,140.557236 
M387.962891,138.607376 
	C387.962891,142.347534 387.962891,146.087677 387.962891,149.423737 
	C392.143707,149.423737 395.443604,149.423737 398.743469,149.423737 
	C398.757690,149.047623 398.771942,148.671524 398.786163,148.295410 
	C396.149750,148.032974 393.513367,147.770523 390.772461,147.497681 
	C390.772461,145.370407 390.772461,143.496155 390.772461,141.580719 
	C393.153259,141.280365 395.142914,141.029343 397.038391,140.790207 
	C394.837494,139.072205 391.482452,137.731094 391.337372,136.103775 
	C390.876129,130.930496 396.679321,135.171570 398.506958,131.882965 
	C394.897003,131.882965 391.564850,131.882965 387.963470,131.882965 
	C387.963470,134.008636 387.963470,135.832306 387.962891,138.607376 
M356.030762,138.616180 
	C356.583862,138.435745 357.559784,137.999023 357.628387,138.112228 
	C359.525085,141.241699 361.247498,144.478683 363.195221,147.574249 
	C363.850250,148.615280 365.039307,149.320328 366.423065,150.577560 
	C366.423065,143.626236 366.423065,137.697617 366.423065,131.769012 
	C365.944153,131.760162 365.465240,131.751312 364.986328,131.742462 
	C364.986328,135.932312 364.986328,140.122162 364.986328,145.122559 
	C360.284973,140.601379 359.676514,134.356735 354.339600,131.042358 
	C354.339600,137.918350 354.339600,143.846100 354.339600,149.773834 
	C354.902374,149.782318 355.465118,149.790802 356.027893,149.799271 
	C356.027893,146.328522 356.027893,142.857758 356.030762,138.616180 
M298.994141,139.432846 
	C298.994141,142.910904 298.994141,146.388962 298.994141,149.867035 
	C299.635254,149.879135 300.276337,149.891251 300.917450,149.903351 
	C301.234375,147.296494 301.551300,144.689636 301.855377,142.188354 
	C304.220306,141.869446 306.205933,141.601685 308.191559,141.333923 
	C308.193146,140.944855 308.194733,140.555771 308.196320,140.166702 
	C306.072906,139.782547 303.949493,139.398392 301.996094,139.044983 
	C299.075104,130.281815 308.161835,135.442520 309.956879,131.724304 
	C306.147614,131.724304 302.703491,131.724304 298.995636,131.724304 
	C298.995636,134.241562 298.995636,136.388733 298.994141,139.432846 
M373.712646,133.200348 
	C369.737427,139.172058 370.073608,145.422943 374.547455,148.721909 
	C378.232422,151.439163 382.550659,150.387024 383.205170,147.597183 
	C380.755188,147.255554 376.758850,147.725494 375.999908,146.375473 
	C374.488831,143.687515 373.494781,139.404861 374.671814,136.902802 
	C375.701691,134.713593 379.998962,134.061447 382.608032,132.844467 
	C380.544189,130.369324 379.592377,130.258240 373.712646,133.200348 
M315.214447,134.125610 
	C314.892883,133.261749 314.571320,132.397888 314.249786,131.534042 
	C314.005157,131.618820 313.760559,131.703613 313.515930,131.788391 
	C313.515930,137.772186 313.515930,143.755997 313.515930,149.739792 
	C314.081970,149.753769 314.648041,149.767761 315.214081,149.781738 
	C315.214081,144.859085 315.214081,139.936417 315.214447,134.125610 
z"/>
<path fill="#274A51" opacity="1.000000" stroke="none" 
	d="
M149.000000,1.000001 
	C259.688690,1.000000 370.377350,1.000000 481.578186,1.382117 
	C482.361603,4.033398 482.632935,6.302563 482.463257,8.609678 
	C479.107361,8.519365 476.192413,8.391102 473.107605,7.988865 
	C466.113098,2.765482 461.023865,2.947223 453.306824,8.481564 
	C418.554840,8.605730 384.249023,8.684258 349.943176,8.683371 
	C280.664093,8.681579 211.385010,8.636647 142.217590,8.316881 
	C144.552826,5.682837 146.776413,3.341420 149.000000,1.000001 
z"/>
<path fill="#24484F" opacity="1.000000" stroke="none" 
	d="
M95.996841,112.165588 
	C94.208092,112.775459 92.435394,113.848701 90.627686,113.911331 
	C84.325180,114.129700 78.009995,113.947281 71.700706,114.016022 
	C66.555313,114.072067 60.769802,112.545158 57.987289,121.362602 
	C55.258839,112.532806 49.463970,113.942123 44.324291,114.040443 
	C33.717457,114.243347 23.110233,114.578926 12.515522,115.107529 
	C10.794783,115.193382 9.137455,116.550201 7.450817,117.319542 
	C8.311120,119.023819 8.848879,121.031334 10.103036,122.365318 
	C12.294419,124.696167 12.356229,126.459854 9.368894,127.685783 
	C6.937962,128.683380 4.318248,129.220963 1.391124,129.981262 
	C1.000000,87.079842 1.000000,44.159691 1.000000,1.000000 
	C36.353867,1.000000 71.708275,1.000000 107.509315,1.420898 
	C107.945053,4.064913 107.934158,6.288030 107.462387,8.573133 
	C72.973991,8.635120 38.946484,8.635120 4.385703,8.635120 
	C4.385703,43.463722 4.385703,77.391891 4.238562,111.270294 
	C4.091421,111.220520 3.963782,111.518196 3.963782,111.518196 
	C3.963782,111.518196 4.353675,111.515533 4.778961,111.662529 
	C8.526756,111.872238 11.849147,111.981743 15.171796,111.990265 
	C42.113449,112.059410 69.055153,112.109604 95.996841,112.165588 
z"/>
<path fill="#587278" opacity="1.000000" stroke="none" 
	d="
M148.531586,1.000001 
	C146.776413,3.341420 144.552826,5.682837 141.750458,8.407793 
	C135.094513,8.690562 129.017334,8.589792 122.963516,8.158777 
	C124.991264,5.552355 126.995628,3.276177 129.000000,0.999999 
	C135.354401,1.000000 141.708786,1.000000 148.531586,1.000001 
z"/>
<path fill="#587278" opacity="1.000000" stroke="none" 
	d="
M505.545898,0.999997 
	C507.632202,2.752576 509.264435,4.505158 511.081909,6.456693 
	C509.126038,9.724943 506.742310,8.976504 504.267914,7.150006 
	C501.370850,5.011526 498.887848,4.824759 496.566895,8.737749 
	C494.334656,8.821873 492.631165,8.654393 490.898529,8.154895 
	C492.579620,5.548586 494.289825,3.274296 496.000000,1.000003 
	C499.030609,1.000000 502.061188,1.000000 505.545898,0.999997 
z"/>
<path fill="#587278" opacity="1.000000" stroke="none" 
	d="
M107.923264,8.511147 
	C107.934158,6.288030 107.945053,4.064913 107.977974,1.420898 
	C111.692909,1.000000 115.385818,1.000000 119.530800,1.420161 
	C120.006912,4.056145 120.030945,6.271968 119.593140,8.548859 
	C115.395287,8.577000 111.659271,8.544073 107.923264,8.511147 
z"/>
<path fill="#294B53" opacity="1.000000" stroke="none" 
	d="
M495.550018,1.000003 
	C494.289825,3.274296 492.579620,5.548586 490.545044,8.087516 
	C489.503754,8.397871 488.786835,8.443587 488.115601,8.110386 
	C487.774231,5.487646 487.387115,3.243823 487.000000,1.000000 
	C489.700012,1.000000 492.400024,1.000000 495.550018,1.000003 
z"/>
<path fill="#2A4B53" opacity="1.000000" stroke="none" 
	d="
M120.054977,8.487792 
	C120.030945,6.271968 120.006912,4.056145 119.991440,1.420161 
	C122.700012,1.000000 125.400024,1.000000 128.550018,0.999999 
	C126.995628,3.276177 124.991264,5.552355 122.606865,8.233170 
	C121.502884,8.587801 120.778938,8.537797 120.054977,8.487792 
z"/>
<path fill="#587278" opacity="1.000000" stroke="none" 
	d="
M486.583344,1.000000 
	C487.387115,3.243823 487.774231,5.487646 487.687622,8.174137 
	C485.777344,8.601779 484.340790,8.586754 482.904236,8.571728 
	C482.632935,6.302563 482.361603,4.033398 482.045166,1.382117 
	C483.388885,1.000000 484.777802,1.000000 486.583344,1.000000 
z"/>
<path fill="#ACC9C8" opacity="1.000000" stroke="none" 
	d="
M482.463257,8.609678 
	C484.340790,8.586754 485.777344,8.601779 487.641907,8.553055 
	C488.786835,8.443587 489.503754,8.397871 490.574158,8.419534 
	C492.631165,8.654393 494.334656,8.821873 496.459229,9.067358 
	C496.880310,43.195454 496.880310,77.245544 496.880310,112.039932 
	C475.350433,112.039932 454.141998,112.039932 432.468872,112.103149 
	C416.213043,112.109451 400.421814,112.009438 384.630615,112.004059 
	C344.728699,111.990479 304.826813,112.019463 264.460144,112.098373 
	C243.217422,112.111404 222.439484,112.022697 201.661530,112.011307 
	C166.749756,111.992172 131.837952,112.022202 96.461502,112.098572 
	C69.055153,112.109604 42.113449,112.059410 15.171796,111.990265 
	C11.849147,111.981743 8.526756,111.872238 4.832655,111.621178 
	C4.461064,111.432831 4.385703,111.320061 4.385703,111.320061 
	C4.385703,77.391891 4.385703,43.463722 4.385703,8.635120 
	C38.946484,8.635120 72.973991,8.635120 107.462379,8.573133 
	C111.659271,8.544073 115.395287,8.577000 119.593140,8.548859 
	C120.778938,8.537797 121.502884,8.587801 122.583496,8.563414 
	C129.017334,8.589792 135.094513,8.690562 141.638809,8.700419 
	C211.385010,8.636647 280.664093,8.681579 349.943176,8.683371 
	C384.249023,8.684258 418.554840,8.605730 453.781586,8.586609 
	C460.894135,8.494337 467.085815,8.378588 473.277466,8.262838 
	C476.192413,8.391102 479.107361,8.519365 482.463257,8.609678 
M468.870331,30.211081 
	C464.581268,28.789074 460.292236,27.367069 455.369568,25.689217 
	C453.576263,25.771519 451.782959,25.853819 449.118805,25.913065 
	C444.150574,26.936977 439.136292,27.790428 434.248505,29.111931 
	C433.112518,29.419069 431.681091,31.288074 431.627655,32.493492 
	C431.372437,38.250465 431.544922,44.026402 431.267456,50.652302 
	C431.225006,52.457047 431.182556,54.261795 431.050079,56.991722 
	C431.050079,68.560394 431.050079,80.129059 431.050079,91.913055 
	C436.814484,92.303802 442.170105,92.666847 447.713257,93.042595 
	C448.041290,86.276695 448.331879,80.283585 448.622467,74.290474 
	C449.197601,73.947838 449.772736,73.605209 450.347839,73.262581 
	C454.877136,88.864265 464.533691,97.534828 480.949493,97.869110 
	C481.652710,91.944153 482.306854,86.432770 482.969696,80.847977 
	C476.438660,79.543655 469.441559,80.069794 467.375824,72.143028 
	C483.097839,62.997185 485.841827,43.664433 472.857178,33.105267 
	C471.617310,32.355503 470.377411,31.605740 468.870331,30.211081 
M399.391754,50.088310 
	C398.121735,49.900906 396.851746,49.713501 395.375397,48.715813 
	C395.375397,46.946983 395.375397,45.178154 395.375397,43.644173 
	C402.563232,43.644173 409.510651,43.752136 416.449768,43.559147 
	C417.958008,43.517200 420.546356,42.637535 420.742584,41.732811 
	C421.777039,36.962643 422.204681,32.060875 422.849854,27.151714 
	C407.498627,27.151714 392.644989,27.151714 377.199646,27.151714 
	C378.244812,45.718727 379.262634,63.800411 380.069183,82.797096 
	C380.143066,94.879440 377.872833,94.545692 389.980774,93.081047 
	C401.540527,92.657959 413.100250,92.234871 424.873474,91.803978 
	C424.873474,85.973717 424.873474,80.750153 424.873474,75.113152 
	C415.556549,75.529091 406.534668,75.931862 397.360870,76.341415 
	C396.893982,72.881126 396.498932,69.953201 396.792694,66.991776 
	C397.863708,66.658875 398.934753,66.325966 400.918701,66.186768 
	C406.837646,65.793106 412.756622,65.399445 418.516632,65.016350 
	C420.869751,51.917168 420.006989,50.777557 407.591125,50.217472 
	C405.111084,50.105595 402.618317,50.276314 399.391754,50.088310 
M330.818695,87.617279 
	C331.935974,89.412674 332.749084,92.410446 334.226013,92.784088 
	C339.193329,94.040733 344.383820,94.594658 349.519135,94.887886 
	C350.886719,94.965981 353.232300,93.439232 353.658386,92.159653 
	C360.166260,72.615791 366.468262,53.002682 372.653717,33.353905 
	C373.018311,32.195774 372.366943,29.703882 371.540100,29.350851 
	C366.543243,27.217426 361.357544,25.526283 355.750305,23.513245 
	C351.325165,37.382706 347.049561,50.783554 342.773956,64.184402 
	C339.446869,54.195625 336.954163,44.388798 335.337036,34.439651 
	C334.478271,29.156199 332.074677,27.034605 327.062195,27.131088 
	C326.232330,27.147062 325.399170,27.056885 324.569183,26.994143 
	C317.594849,26.466934 317.666901,26.483444 315.995636,33.150402 
	C313.509674,43.067459 310.910034,52.956024 308.358795,62.856712 
	C308.036377,62.830826 307.713959,62.804943 307.391571,62.779060 
	C304.073944,50.565952 300.756317,38.352844 297.269257,25.516048 
	C290.815948,27.880480 284.829407,30.073891 278.532654,32.380966 
	C279.092072,34.672707 279.461609,36.600712 280.034027,38.466484 
	C284.762451,53.879021 289.501923,69.288284 294.293518,84.681267 
	C296.959564,93.245888 297.007233,93.231049 306.011993,93.163574 
	C318.261261,93.071785 318.239563,93.067047 320.874939,80.986755 
	C322.091553,75.409882 323.411896,69.855652 324.685242,64.291161 
	C325.047211,64.344337 325.409210,64.397522 325.771210,64.450706 
	C327.385040,71.903275 328.998871,79.355850 330.818695,87.617279 
M138.270966,87.148018 
	C138.704453,89.049454 139.137924,90.950890 139.697906,93.407234 
	C145.882690,91.612778 151.692764,89.927040 157.756317,88.167763 
	C153.290787,66.453087 148.955597,45.372204 144.602402,24.203766 
	C137.920120,23.554472 131.671204,22.947289 124.977074,22.296844 
	C121.737015,35.349747 118.558662,48.154068 115.380310,60.958393 
	C113.919113,59.313454 113.345757,57.669426 112.872536,55.997051 
	C110.609566,47.999733 108.471458,39.964821 106.039040,32.019783 
	C105.596375,30.573900 104.134041,28.582479 102.897148,28.385868 
	C97.526230,27.532125 92.064507,27.249632 86.302811,26.729445 
	C81.568382,47.216675 76.945885,67.219582 72.245239,87.560631 
	C78.410957,89.329376 84.058327,90.949425 90.214134,92.715324 
	C92.548187,81.178703 94.740021,70.345009 97.168190,58.343193 
	C97.827576,60.199795 98.088890,60.801968 98.257057,61.429115 
	C100.796616,70.899559 103.458817,80.340492 105.774307,89.865639 
	C106.496368,92.835945 107.634026,93.896667 110.775169,93.917358 
	C124.301857,94.006409 124.301414,94.114456 126.900780,80.822533 
	C126.964615,80.496086 126.986092,80.160919 127.057419,79.836441 
	C128.710495,72.317047 130.367737,64.798576 132.024216,57.279930 
	C132.317047,57.315395 132.609879,57.350864 132.902710,57.386330 
	C134.645401,67.027557 136.388092,76.668777 138.270966,87.148018 
M266.755035,33.707390 
	C260.571014,31.489262 254.505493,27.847212 248.180649,27.320791 
	C229.430588,25.760202 214.386246,39.634445 213.455093,58.071316 
	C212.441422,78.141777 225.845062,92.945564 245.632889,93.610359 
	C259.600037,94.079605 272.620789,84.958290 277.369141,71.378448 
	C282.958588,55.393143 279.725311,43.335449 266.755035,33.707390 
M37.871273,42.979588 
	C44.355858,43.197117 50.841045,43.398411 57.324692,43.641018 
	C59.579922,43.725410 61.676281,43.892197 61.987206,40.696846 
	C62.418949,36.259914 63.106152,31.847841 63.713928,27.195992 
	C48.430870,27.195992 33.451351,27.195992 18.192869,27.195992 
	C19.187801,49.559738 20.159994,71.412376 21.148680,93.635719 
	C36.332230,92.996689 50.888969,92.384048 65.623108,91.763931 
	C65.623108,85.953690 65.623108,80.590706 65.623108,75.046265 
	C56.318554,75.495804 47.393642,75.926994 38.014248,76.380142 
	C37.729271,73.033707 37.485695,70.173462 37.220833,67.063286 
	C45.030212,66.270882 52.266781,65.536598 59.914127,64.760635 
	C59.914127,60.112389 59.914127,55.737766 59.914127,50.974907 
	C53.424225,50.621716 47.139454,50.270958 40.853626,49.940296 
	C35.560944,49.661880 34.988232,48.669479 37.871273,42.979588 
M211.152740,45.498474 
	C210.017929,36.568867 205.265976,30.211424 196.776733,27.460104 
	C186.176453,24.024614 175.725647,25.446831 165.774246,30.355135 
	C162.507675,31.966291 161.153229,34.407742 161.333908,38.388588 
	C162.088867,55.022327 162.431198,71.674728 162.938538,88.319870 
	C162.991989,90.073677 163.136261,91.824722 163.255020,93.862427 
	C169.124557,93.251534 174.390244,92.703491 180.147949,92.104240 
	C180.147949,86.903030 180.147949,82.002762 180.147949,76.939606 
	C181.997040,76.939606 183.315536,76.940735 184.634048,76.939438 
	C203.731934,76.920639 213.829376,65.294312 211.152740,45.498474 
z"/>
<path fill="#9FBEC1" opacity="1.000000" stroke="none" 
	d="
M548.867310,38.768585 
	C548.872620,34.187401 548.872620,30.077885 548.872620,25.356995 
	C555.808044,25.821003 561.844177,26.224846 568.377319,26.661938 
	C568.377319,50.289371 568.377319,73.358406 568.377319,96.914024 
	C562.016663,96.053116 555.667786,95.193802 548.607605,94.238220 
	C548.607605,86.823624 548.516174,79.690712 548.649902,72.562035 
	C548.708130,69.459007 547.773621,67.903282 544.404785,68.076370 
	C540.774475,68.262894 537.127136,68.118546 532.627869,68.118546 
	C532.370483,74.619781 532.106567,81.020767 531.866211,87.422638 
	C531.557007,95.657242 531.564941,95.662453 523.259033,95.381157 
	C519.599304,95.257217 515.940063,95.117371 512.281860,94.954933 
	C511.990631,94.942009 511.709778,94.695824 511.617493,94.651314 
	C511.617493,72.127846 511.617493,49.717438 511.617493,26.902996 
	C518.100525,26.394018 523.878174,25.967142 529.650391,25.476101 
	C532.587524,25.226240 532.821106,27.007692 532.803101,29.255180 
	C532.747375,36.224754 532.782715,43.195057 532.782715,50.925510 
	C538.144836,50.539600 543.012573,50.189278 548.862000,49.768299 
	C548.862000,46.101402 548.862000,42.670830 548.867310,38.768585 
M537.565979,65.093552 
	C541.981445,65.093552 546.396973,65.093552 551.568054,65.093552 
	C551.568054,74.743439 551.568054,83.153435 551.568054,91.740692 
	C556.694214,92.495163 561.082520,93.141037 565.450500,93.783928 
	C565.450500,72.139061 565.450500,50.786148 565.450500,29.286285 
	C560.789185,28.939543 556.690002,28.634617 551.354187,28.237700 
	C551.354187,35.303478 551.332092,41.916473 551.365906,48.529175 
	C551.378113,50.916313 551.026001,52.739574 547.966858,52.831966 
	C542.187744,53.006508 536.415283,53.399265 529.850525,53.742634 
	C529.850525,45.098736 529.850525,36.765560 529.850525,28.280941 
	C525.751404,28.570068 522.437195,29.042269 519.134460,28.972288 
	C515.558594,28.896521 514.731506,30.490513 514.697266,33.786251 
	C514.538330,49.097519 514.187256,64.407227 513.836426,79.715935 
	C513.513855,93.789879 513.805847,94.076920 528.721802,92.348259 
	C529.200134,83.375130 529.682190,74.333389 530.177429,65.042999 
	C532.647095,65.042999 534.622498,65.042999 537.565979,65.093552 
z"/>
<path fill="#9FBEC1" opacity="1.000000" stroke="none" 
	d="
M620.996155,92.898773 
	C605.441162,93.731995 590.329407,94.459877 574.415039,95.226425 
	C573.399963,71.797806 572.405151,48.837650 571.395508,25.533272 
	C587.842346,25.533272 603.575989,25.533272 620.001770,25.533272 
	C619.072998,32.074005 618.178894,38.370380 617.283936,44.672791 
	C608.741333,44.672791 600.655029,44.672791 592.568787,44.672791 
	C592.273804,45.061703 591.978882,45.450615 591.683899,45.839531 
	C592.951538,46.745316 594.152771,48.304157 595.498535,48.440945 
	C600.624268,48.961910 605.798645,48.988407 610.950500,49.276978 
	C612.738037,49.377102 614.513000,49.701824 616.564453,49.957733 
	C616.307556,55.479481 616.069946,60.587059 615.815247,66.062729 
	C608.295715,66.842575 601.060974,67.592888 593.339722,68.393654 
	C593.571899,70.578865 593.774719,72.487717 594.031677,74.905914 
	C603.361511,74.483093 612.406860,74.073166 622.276550,73.625870 
	C621.982178,80.365837 621.710815,86.579643 620.996155,92.898773 
M582.561707,91.975815 
	C591.716736,91.613983 600.874573,91.310509 610.026062,90.875061 
	C620.698975,90.367226 618.914734,91.987923 619.284058,81.275383 
	C619.413635,77.518486 618.231140,76.351501 614.403015,76.681641 
	C606.834534,77.334366 599.222656,77.483604 591.175781,77.862320 
	C590.933472,73.613876 590.720276,69.875648 590.483765,65.727928 
	C595.388794,65.250908 599.829712,64.876137 604.256592,64.376732 
	C613.741089,63.306778 613.741760,63.280365 613.626526,53.435703 
	C613.623108,53.149094 613.355530,52.865574 613.065063,52.292233 
	C606.762756,51.904434 600.304077,51.288818 593.837952,51.196438 
	C590.334045,51.146378 589.025513,49.804428 589.195190,46.498600 
	C589.276306,44.918262 589.209167,43.330315 589.209167,41.772743 
	C598.048950,41.772743 606.304565,41.772743 614.871582,41.772743 
	C615.544556,37.231384 616.193115,32.854366 616.864563,28.322987 
	C602.558228,28.322987 588.625732,28.322987 574.265564,28.322987 
	C575.199036,49.651985 576.119263,70.679070 577.029236,91.471245 
	C578.002319,91.784302 578.306580,91.955132 578.617859,91.968887 
	C579.614929,92.012947 580.614624,91.998848 582.561707,91.975815 
z"/>
<path fill="#9FBEC1" opacity="1.000000" stroke="none" 
	d="
M670.615417,33.388138 
	C682.243713,46.892139 679.827271,62.641590 664.460632,72.972031 
	C666.347229,77.736832 670.738647,78.687263 674.859741,78.798767 
	C679.455566,78.923126 680.213196,80.678329 679.401978,84.663528 
	C678.674683,88.236511 678.249207,91.910133 678.122681,95.554359 
	C678.012634,98.722443 676.678955,99.488579 673.750366,99.201065 
	C661.990601,98.046555 652.842590,93.056343 647.646912,81.991356 
	C647.233887,81.111809 646.676331,80.298996 646.160156,79.471230 
	C646.118408,79.404274 645.876099,79.462379 644.783813,79.462379 
	C644.783813,83.318932 645.030457,87.237137 644.635681,91.089615 
	C644.514954,92.267700 642.627441,94.195534 641.558533,94.189148 
	C636.100952,94.156563 630.646484,93.603134 624.955078,93.215866 
	C624.955078,84.842064 624.895813,76.905594 624.968994,68.970352 
	C625.077942,57.154842 625.178955,45.337006 625.549561,33.528519 
	C625.606934,31.699951 626.623291,28.859112 627.971191,28.275070 
	C641.074646,22.597422 658.813904,21.495834 670.615417,33.388138 
M650.573608,81.700157 
	C655.823975,91.243088 663.834900,96.014206 675.136902,96.162170 
	C675.737061,91.359703 676.286926,86.959435 676.867432,82.314156 
	C675.729492,82.025497 674.734619,81.920372 673.869873,81.528160 
	C670.189331,79.858856 666.163635,78.605759 663.026794,76.204285 
	C660.950134,74.614410 659.637939,71.192032 663.993713,69.667160 
	C676.383789,65.329582 678.512939,44.798592 668.914001,35.224339 
	C658.029663,24.368069 641.496216,25.734541 630.230652,30.368078 
	C629.174377,30.802521 628.322327,32.952244 628.251770,34.349792 
	C627.975342,39.828735 628.012146,45.325344 628.002258,50.815517 
	C627.978699,63.926624 627.994690,77.037804 627.994690,90.632103 
	C632.241699,90.933945 636.827576,91.259865 641.742004,91.609138 
	C642.114563,84.909248 642.474548,78.434662 642.838318,71.892647 
	C648.626160,73.009773 648.881470,77.417061 650.573608,81.700157 
z"/>
<path fill="#ADC6BC" opacity="1.000000" stroke="none" 
	d="
M325.208618,134.817688 
	C326.901001,137.827026 328.330505,140.577194 329.760010,143.327362 
	C330.067596,143.274307 330.375183,143.221237 330.682770,143.168167 
	C330.931519,139.298615 331.180298,135.429047 331.429077,131.559479 
	C331.943329,131.576416 332.457611,131.593353 332.971863,131.610306 
	C332.971863,137.602722 332.971863,143.595154 332.971863,150.366730 
	C327.722382,147.575195 327.268890,141.349030 323.044250,137.432663 
	C322.790588,141.968643 322.569763,145.917114 322.348938,149.865570 
	C321.854187,149.853912 321.359406,149.842255 320.864624,149.830597 
	C320.864624,143.836777 320.864624,137.842972 320.864624,130.150482 
	C322.729065,132.164246 323.837402,133.361374 325.208618,134.817688 
z"/>
<path fill="#BCD5CC" opacity="1.000000" stroke="none" 
	d="
M339.270264,140.197815 
	C340.176727,137.642914 340.692596,135.314346 341.811249,133.324631 
	C342.199158,132.634613 345.067078,132.415207 345.138336,132.605179 
	C347.238190,138.201447 349.127838,143.876572 351.423035,150.634781 
	C348.055145,147.897186 345.835205,144.684052 343.584808,144.662598 
	C341.367279,144.641434 339.118927,147.853409 336.104340,150.272598 
	C337.240112,146.609222 338.178284,143.583237 339.270264,140.197815 
z"/>
<path fill="#C6DFD4" opacity="1.000000" stroke="none" 
	d="
M387.963196,138.131683 
	C387.963470,135.832306 387.963470,134.008636 387.963470,131.882965 
	C391.564850,131.882965 394.897003,131.882965 398.506958,131.882965 
	C396.679321,135.171570 390.876129,130.930496 391.337372,136.103775 
	C391.482452,137.731094 394.837494,139.072205 397.038391,140.790207 
	C395.142914,141.029343 393.153259,141.280365 390.772461,141.580719 
	C390.772461,143.496155 390.772461,145.370407 390.772461,147.497681 
	C393.513367,147.770523 396.149750,148.032974 398.786163,148.295410 
	C398.771942,148.671524 398.757690,149.047623 398.743469,149.423737 
	C395.443604,149.423737 392.143707,149.423737 387.962891,149.423737 
	C387.962891,146.087677 387.962891,142.347534 387.963196,138.131683 
z"/>
<path fill="#C6DFD4" opacity="1.000000" stroke="none" 
	d="
M356.029327,139.001587 
	C356.027893,142.857758 356.027893,146.328522 356.027893,149.799271 
	C355.465118,149.790802 354.902374,149.782318 354.339600,149.773834 
	C354.339600,143.846100 354.339600,137.918350 354.339600,131.042358 
	C359.676514,134.356735 360.284973,140.601379 364.986328,145.122559 
	C364.986328,140.122162 364.986328,135.932312 364.986328,131.742462 
	C365.465240,131.751312 365.944153,131.760162 366.423065,131.769012 
	C366.423065,137.697617 366.423065,143.626236 366.423065,150.577560 
	C365.039307,149.320328 363.850250,148.615280 363.195221,147.574249 
	C361.247498,144.478683 359.525085,141.241699 357.628387,138.112228 
	C357.559784,137.999023 356.583862,138.435745 356.029327,139.001587 
z"/>
<path fill="#BCD5CC" opacity="1.000000" stroke="none" 
	d="
M298.994873,138.984375 
	C298.995636,136.388733 298.995636,134.241562 298.995636,131.724304 
	C302.703491,131.724304 306.147614,131.724304 309.956879,131.724304 
	C308.161835,135.442520 299.075104,130.281815 301.996094,139.044983 
	C303.949493,139.398392 306.072906,139.782547 308.196320,140.166702 
	C308.194733,140.555771 308.193146,140.944855 308.191559,141.333923 
	C306.205933,141.601685 304.220306,141.869446 301.855377,142.188354 
	C301.551300,144.689636 301.234375,147.296494 300.917450,149.903351 
	C300.276337,149.891251 299.635254,149.879135 298.994141,149.867035 
	C298.994141,146.388962 298.994141,142.910904 298.994873,138.984375 
z"/>
<path fill="#BCD5CC" opacity="1.000000" stroke="none" 
	d="
M374.032654,132.984528 
	C379.592377,130.258240 380.544189,130.369324 382.608032,132.844467 
	C379.998962,134.061447 375.701691,134.713593 374.671814,136.902802 
	C373.494781,139.404861 374.488831,143.687515 375.999908,146.375473 
	C376.758850,147.725494 380.755188,147.255554 383.205170,147.597183 
	C382.550659,150.387024 378.232422,151.439163 374.547455,148.721909 
	C370.073608,145.422943 369.737427,139.172058 374.032654,132.984528 
z"/>
<path fill="#C6DFD4" opacity="1.000000" stroke="none" 
	d="
M315.214264,134.569687 
	C315.214081,139.936417 315.214081,144.859085 315.214081,149.781738 
	C314.648041,149.767761 314.081970,149.753769 313.515930,149.739792 
	C313.515930,143.755997 313.515930,137.772186 313.515930,131.788391 
	C313.760559,131.703613 314.005157,131.618820 314.249786,131.534042 
	C314.571320,132.397888 314.892883,133.261749 315.214264,134.569687 
z"/>
<path fill="#5D7C80" opacity="1.000000" stroke="none" 
	d="
M473.107605,7.988865 
	C467.085815,8.378588 460.894135,8.494337 454.227722,8.505041 
	C461.023865,2.947223 466.113098,2.765482 473.107605,7.988865 
z"/>
<path fill="#67878B" opacity="1.000000" stroke="none" 
	d="
M4.238562,111.270294 
	C4.385703,111.320061 4.461064,111.432831 4.407370,111.474182 
	C4.353675,111.515533 3.963782,111.518196 3.963782,111.518196 
	C3.963782,111.518196 4.091421,111.220520 4.238562,111.270294 
z"/>
<path fill="#2A4C54" opacity="1.000000" stroke="none" 
	d="
M330.715698,87.212845 
	C328.998871,79.355850 327.385040,71.903275 325.771210,64.450706 
	C325.409210,64.397522 325.047211,64.344337 324.685242,64.291161 
	C323.411896,69.855652 322.091553,75.409882 320.874939,80.986755 
	C318.239563,93.067047 318.261261,93.071785 306.011993,93.163574 
	C297.007233,93.231049 296.959564,93.245888 294.293518,84.681267 
	C289.501923,69.288284 284.762451,53.879021 280.034027,38.466484 
	C279.461609,36.600712 279.092072,34.672707 278.532654,32.380966 
	C284.829407,30.073891 290.815948,27.880480 297.269257,25.516048 
	C300.756317,38.352844 304.073944,50.565952 307.391571,62.779060 
	C307.713959,62.804943 308.036377,62.830826 308.358795,62.856712 
	C310.910034,52.956024 313.509674,43.067459 315.995636,33.150402 
	C317.666901,26.483444 317.594849,26.466934 324.569183,26.994143 
	C325.399170,27.056885 326.232330,27.147062 327.062195,27.131088 
	C332.074677,27.034605 334.478271,29.156199 335.337036,34.439651 
	C336.954163,44.388798 339.446869,54.195625 342.773956,64.184402 
	C347.049561,50.783554 351.325165,37.382706 355.750305,23.513245 
	C361.357544,25.526283 366.543243,27.217426 371.540100,29.350851 
	C372.366943,29.703882 373.018311,32.195774 372.653717,33.353905 
	C366.468262,53.002682 360.166260,72.615791 353.658386,92.159653 
	C353.232300,93.439232 350.886719,94.965981 349.519135,94.887886 
	C344.383820,94.594658 339.193329,94.040733 334.226013,92.784088 
	C332.749084,92.410446 331.935974,89.412674 330.715698,87.212845 
z"/>
<path fill="#284A52" opacity="1.000000" stroke="none" 
	d="
M138.200882,86.729012 
	C136.388092,76.668777 134.645401,67.027557 132.902710,57.386330 
	C132.609879,57.350864 132.317047,57.315395 132.024216,57.279930 
	C130.367737,64.798576 128.710495,72.317047 127.057419,79.836441 
	C126.986092,80.160919 126.964615,80.496086 126.900780,80.822533 
	C124.301414,94.114456 124.301857,94.006409 110.775169,93.917358 
	C107.634026,93.896667 106.496368,92.835945 105.774307,89.865639 
	C103.458817,80.340492 100.796616,70.899559 98.257057,61.429115 
	C98.088890,60.801968 97.827576,60.199795 97.168190,58.343193 
	C94.740021,70.345009 92.548187,81.178703 90.214134,92.715324 
	C84.058327,90.949425 78.410957,89.329376 72.245239,87.560631 
	C76.945885,67.219582 81.568382,47.216675 86.302811,26.729445 
	C92.064507,27.249632 97.526230,27.532125 102.897148,28.385868 
	C104.134041,28.582479 105.596375,30.573900 106.039040,32.019783 
	C108.471458,39.964821 110.609566,47.999733 112.872536,55.997051 
	C113.345757,57.669426 113.919113,59.313454 115.380310,60.958393 
	C118.558662,48.154068 121.737015,35.349747 124.977074,22.296844 
	C131.671204,22.947289 137.920120,23.554472 144.602402,24.203766 
	C148.955597,45.372204 153.290787,66.453087 157.756317,88.167763 
	C151.692764,89.927040 145.882690,91.612778 139.697906,93.407234 
	C139.137924,90.950890 138.704453,89.049454 138.200882,86.729012 
z"/>
<path fill="#2A4C54" opacity="1.000000" stroke="none" 
	d="
M267.061432,33.894238 
	C279.725311,43.335449 282.958588,55.393143 277.369141,71.378448 
	C272.620789,84.958290 259.600037,94.079605 245.632889,93.610359 
	C225.845062,92.945564 212.441422,78.141777 213.455093,58.071316 
	C214.386246,39.634445 229.430588,25.760202 248.180649,27.320791 
	C254.505493,27.847212 260.571014,31.489262 267.061432,33.894238 
M256.270813,72.942535 
	C257.218597,72.008179 258.259216,71.149994 259.098663,70.126770 
	C263.590271,64.651962 264.047424,57.064991 260.279327,51.545219 
	C256.021942,45.308716 248.125488,42.391209 241.478363,44.598824 
	C234.018860,47.076244 229.672165,52.862598 229.927444,60.241993 
	C230.414261,74.315323 245.157364,80.508743 256.270813,72.942535 
z"/>
<path fill="#274951" opacity="1.000000" stroke="none" 
	d="
M37.412319,43.040802 
	C34.988232,48.669479 35.560944,49.661880 40.853626,49.940296 
	C47.139454,50.270958 53.424225,50.621716 59.914127,50.974907 
	C59.914127,55.737766 59.914127,60.112389 59.914127,64.760635 
	C52.266781,65.536598 45.030212,66.270882 37.220833,67.063286 
	C37.485695,70.173462 37.729271,73.033707 38.014248,76.380142 
	C47.393642,75.926994 56.318554,75.495804 65.623108,75.046265 
	C65.623108,80.590706 65.623108,85.953690 65.623108,91.763931 
	C50.888969,92.384048 36.332230,92.996689 21.148680,93.635719 
	C20.159994,71.412376 19.187801,49.559738 18.192869,27.195992 
	C33.451351,27.195992 48.430870,27.195992 63.713928,27.195992 
	C63.106152,31.847841 62.418949,36.259914 61.987206,40.696846 
	C61.676281,43.892197 59.579922,43.725410 57.324692,43.641018 
	C50.841045,43.398411 44.355858,43.197117 37.412319,43.040802 
z"/>
<path fill="#2A4C54" opacity="1.000000" stroke="none" 
	d="
M431.565308,49.795593 
	C431.544922,44.026402 431.372437,38.250465 431.627655,32.493492 
	C431.681091,31.288074 433.112518,29.419069 434.248505,29.111931 
	C439.136292,27.790428 444.150574,26.936977 449.695129,26.239670 
	C452.215149,28.983070 453.861542,31.740808 456.162750,33.747673 
	C461.403900,38.318451 468.114594,38.126381 473.067657,33.707413 
	C485.841827,43.664433 483.097839,62.997185 467.375824,72.143028 
	C469.441559,80.069794 476.438660,79.543655 482.969696,80.847977 
	C482.306854,86.432770 481.652710,91.944153 480.949493,97.869110 
	C464.533691,97.534828 454.877136,88.864265 450.347839,73.262581 
	C449.772736,73.605209 449.197601,73.947838 448.622467,74.290474 
	C448.331879,80.283585 448.041290,86.276695 447.713257,93.042595 
	C442.170105,92.666847 436.814484,92.303802 431.050079,91.913055 
	C431.050079,80.129059 431.050079,68.560394 431.540161,56.483299 
	C438.406219,56.944904 444.096313,54.901997 449.573822,52.404892 
	C450.041382,54.843140 449.944855,58.141590 451.094727,58.656475 
	C458.256836,61.863441 465.093811,56.440868 464.151672,48.695908 
	C463.541290,43.678005 461.761261,42.431767 454.054749,41.346176 
	C448.500488,30.770216 447.357178,30.449375 439.528198,36.957096 
	C439.401154,37.062695 439.194031,37.131710 439.145508,37.262699 
	C438.739929,38.357929 438.362793,39.463692 437.977081,40.566277 
	C439.136078,40.693531 440.804230,41.378075 441.372559,40.858826 
	C445.480164,37.105934 447.731506,39.894531 449.948761,43.320801 
	C449.831635,44.056637 449.760162,44.476364 449.379395,45.009968 
	C444.142700,50.081429 438.702179,53.116638 431.565308,49.795593 
z"/>
<path fill="#294B53" opacity="1.000000" stroke="none" 
	d="
M211.178223,45.922825 
	C213.829376,65.294312 203.731934,76.920639 184.634048,76.939438 
	C183.315536,76.940735 181.997040,76.939606 180.147949,76.939606 
	C180.147949,82.002762 180.147949,86.903030 180.147949,92.104240 
	C174.390244,92.703491 169.124557,93.251534 163.255020,93.862427 
	C163.136261,91.824722 162.991989,90.073677 162.938538,88.319870 
	C162.431198,71.674728 162.088867,55.022327 161.333908,38.388588 
	C161.153229,34.407742 162.507675,31.966291 165.774246,30.355135 
	C175.725647,25.446831 186.176453,24.024614 196.776733,27.460104 
	C205.265976,30.211424 210.017929,36.568867 211.178223,45.922825 
M193.405457,42.903351 
	C192.545715,42.420143 191.738998,41.765442 190.817917,41.480633 
	C182.884857,39.027664 179.128708,41.810875 179.273865,49.984764 
	C179.318085,52.474846 179.028015,55.061058 179.623840,57.417992 
	C179.992950,58.878056 181.537628,60.758942 182.907394,61.122757 
	C188.598053,62.634220 193.931366,61.059677 195.746658,57.278717 
	C198.069595,52.440407 197.735443,47.635990 193.405457,42.903351 
z"/>
<path fill="#2A4B53" opacity="1.000000" stroke="none" 
	d="
M380.280457,81.882095 
	C379.262634,63.800411 378.244812,45.718727 377.199646,27.151714 
	C392.644989,27.151714 407.498627,27.151714 422.849854,27.151714 
	C422.204681,32.060875 421.777039,36.962643 420.742584,41.732811 
	C420.546356,42.637535 417.958008,43.517200 416.449768,43.559147 
	C409.510651,43.752136 402.563232,43.644173 395.375397,43.644173 
	C395.375397,45.178154 395.375397,46.946983 395.249023,49.481827 
	C392.081055,56.037338 391.661194,61.673496 396.103882,67.025269 
	C396.498932,69.953201 396.893982,72.881126 397.360870,76.341415 
	C406.534668,75.931862 415.556549,75.529091 424.873474,75.113152 
	C424.873474,80.750153 424.873474,85.973717 424.873474,91.803978 
	C413.100250,92.234871 401.540527,92.657959 389.758667,92.781914 
	C391.848755,90.861618 394.327271,89.427765 396.425049,87.565109 
	C398.412018,85.800880 402.567139,85.522141 401.296906,81.219505 
	C398.859344,82.067513 396.117096,82.459595 394.040253,83.847427 
	C387.309967,88.344902 387.413116,88.476730 381.971588,82.877670 
	C381.531921,82.425278 380.849854,82.208420 380.280457,81.882095 
z"/>
<path fill="#2A4C54" opacity="1.000000" stroke="none" 
	d="
M400.131409,50.316727 
	C402.618317,50.276314 405.111084,50.105595 407.591125,50.217472 
	C420.006989,50.777557 420.869751,51.917168 418.516632,65.016350 
	C412.756622,65.399445 406.837646,65.793106 400.409668,65.706512 
	C397.636871,60.220184 397.181580,55.242107 400.131409,50.316727 
z"/>
<path fill="#587278" opacity="1.000000" stroke="none" 
	d="
M380.174805,82.339600 
	C380.849854,82.208420 381.531921,82.425278 381.971588,82.877670 
	C387.413116,88.476730 387.309967,88.344902 394.040253,83.847427 
	C396.117096,82.459595 398.859344,82.067513 401.296906,81.219505 
	C402.567139,85.522141 398.412018,85.800880 396.425049,87.565109 
	C394.327271,89.427765 391.848755,90.861618 389.299255,92.709427 
	C377.872833,94.545692 380.143066,94.879440 380.174805,82.339600 
z"/>
<path fill="#587278" opacity="1.000000" stroke="none" 
	d="
M472.962402,33.406342 
	C468.114594,38.126381 461.403900,38.318451 456.162750,33.747673 
	C453.861542,31.740808 452.215149,28.983070 450.130554,26.251198 
	C451.782959,25.853819 453.576263,25.771519 455.851440,26.117128 
	C461.167267,32.365170 463.451447,33.134212 469.137543,30.855976 
	C470.377411,31.605740 471.617310,32.355503 472.962402,33.406342 
z"/>
<path fill="#587278" opacity="1.000000" stroke="none" 
	d="
M431.416382,50.223946 
	C438.702179,53.116638 444.142700,50.081429 449.478638,45.406387 
	C449.786743,47.785389 449.686310,49.881847 449.585876,51.978310 
	C444.096313,54.901997 438.406219,56.944904 431.585144,56.020710 
	C431.182556,54.261795 431.225006,52.457047 431.416382,50.223946 
z"/>
<path fill="#587278" opacity="1.000000" stroke="none" 
	d="
M399.761597,50.202518 
	C397.181580,55.242107 397.636871,60.220184 399.953217,65.609657 
	C398.934753,66.325966 397.863708,66.658875 396.448303,67.008522 
	C391.661194,61.673496 392.081055,56.037338 395.352203,49.886971 
	C396.851746,49.713501 398.121735,49.900906 399.761597,50.202518 
z"/>
<path fill="#2A4C54" opacity="1.000000" stroke="none" 
	d="
M469.003937,30.533527 
	C463.451447,33.134212 461.167267,32.365170 456.168213,26.245052 
	C460.292236,27.367069 464.581268,28.789074 469.003937,30.533527 
z"/>
<path fill="#2A4B53" opacity="1.000000" stroke="none" 
	d="
M537.081909,65.068275 
	C534.622498,65.042999 532.647095,65.042999 530.177429,65.042999 
	C529.682190,74.333389 529.200134,83.375130 528.721802,92.348259 
	C513.805847,94.076920 513.513855,93.789879 513.836426,79.715935 
	C514.187256,64.407227 514.538330,49.097519 514.697266,33.786251 
	C514.731506,30.490513 515.558594,28.896521 519.134460,28.972288 
	C522.437195,29.042269 525.751404,28.570068 529.850525,28.280941 
	C529.850525,36.765560 529.850525,45.098736 529.850525,53.742634 
	C536.415283,53.399265 542.187744,53.006508 547.966858,52.831966 
	C551.026001,52.739574 551.378113,50.916313 551.365906,48.529175 
	C551.332092,41.916473 551.354187,35.303478 551.354187,28.237700 
	C556.690002,28.634617 560.789185,28.939543 565.450500,29.286285 
	C565.450500,50.786148 565.450500,72.139061 565.450500,93.783928 
	C561.082520,93.141037 556.694214,92.495163 551.568054,91.740692 
	C551.568054,83.153435 551.568054,74.743439 551.568054,65.093552 
	C546.396973,65.093552 541.981445,65.093552 537.081909,65.068275 
z"/>
<path fill="#284A52" opacity="1.000000" stroke="none" 
	d="
M582.087524,91.991501 
	C580.614624,91.998848 579.614929,92.012947 578.617859,91.968887 
	C578.306580,91.955132 578.002319,91.784302 577.029236,91.471245 
	C576.119263,70.679070 575.199036,49.651985 574.265564,28.322987 
	C588.625732,28.322987 602.558228,28.322987 616.864563,28.322987 
	C616.193115,32.854366 615.544556,37.231384 614.871582,41.772743 
	C606.304565,41.772743 598.048950,41.772743 589.209167,41.772743 
	C589.209167,43.330315 589.276306,44.918262 589.195190,46.498600 
	C589.025513,49.804428 590.334045,51.146378 593.837952,51.196438 
	C600.304077,51.288818 606.762756,51.904434 613.065063,52.292233 
	C613.355530,52.865574 613.623108,53.149094 613.626526,53.435703 
	C613.741760,63.280365 613.741089,63.306778 604.256592,64.376732 
	C599.829712,64.876137 595.388794,65.250908 590.483765,65.727928 
	C590.720276,69.875648 590.933472,73.613876 591.175781,77.862320 
	C599.222656,77.483604 606.834534,77.334366 614.403015,76.681641 
	C618.231140,76.351501 619.413635,77.518486 619.284058,81.275383 
	C618.914734,91.987923 620.698975,90.367226 610.026062,90.875061 
	C600.874573,91.310509 591.716736,91.613983 582.087524,91.991501 
z"/>
<path fill="#284A52" opacity="1.000000" stroke="none" 
	d="
M650.397095,81.367462 
	C648.881470,77.417061 648.626160,73.009773 642.838318,71.892647 
	C642.474548,78.434662 642.114563,84.909248 641.742004,91.609138 
	C636.827576,91.259865 632.241699,90.933945 627.994690,90.632103 
	C627.994690,77.037804 627.978699,63.926624 628.002258,50.815517 
	C628.012146,45.325344 627.975342,39.828735 628.251770,34.349792 
	C628.322327,32.952244 629.174377,30.802521 630.230652,30.368078 
	C641.496216,25.734541 658.029663,24.368069 668.914001,35.224339 
	C678.512939,44.798592 676.383789,65.329582 663.993713,69.667160 
	C659.637939,71.192032 660.950134,74.614410 663.026794,76.204285 
	C666.163635,78.605759 670.189331,79.858856 673.869873,81.528160 
	C674.734619,81.920372 675.729492,82.025497 676.867432,82.314156 
	C676.286926,86.959435 675.737061,91.359703 675.136902,96.162170 
	C663.834900,96.014206 655.823975,91.243088 650.397095,81.367462 
M656.131836,41.209347 
	C653.684692,41.070118 651.172424,40.536976 648.812622,40.926598 
	C647.169006,41.197964 644.583496,42.560852 644.405090,43.737350 
	C643.620850,48.908810 643.558960,54.189816 643.242432,59.314209 
	C652.175415,61.738686 657.532471,60.491760 660.076721,55.644638 
	C662.553528,50.926170 661.166138,44.909107 656.131836,41.209347 
z"/>
<path fill="#ACC9C8" opacity="1.000000" stroke="none" 
	d="
M255.963196,73.162910 
	C245.157364,80.508743 230.414261,74.315323 229.927444,60.241993 
	C229.672165,52.862598 234.018860,47.076244 241.478363,44.598824 
	C248.125488,42.391209 256.021942,45.308716 260.279327,51.545219 
	C264.047424,57.064991 263.590271,64.651962 259.098663,70.126770 
	C258.259216,71.149994 257.218597,72.008179 255.963196,73.162910 
z"/>
<path fill="#ACC9C8" opacity="1.000000" stroke="none" 
	d="
M449.573792,52.404892 
	C449.686310,49.881847 449.786743,47.785389 449.787903,45.292511 
	C449.760162,44.476364 449.831635,44.056637 450.300018,43.233452 
	C451.840576,42.445980 452.984253,42.061977 454.127930,41.677971 
	C461.761261,42.431767 463.541290,43.678005 464.151672,48.695908 
	C465.093811,56.440868 458.256836,61.863441 451.094727,58.656475 
	C449.944855,58.141590 450.041382,54.843140 449.573792,52.404892 
z"/>
<path fill="#587278" opacity="1.000000" stroke="none" 
	d="
M454.054749,41.346180 
	C452.984253,42.061977 451.840576,42.445980 450.345642,42.917336 
	C447.731506,39.894531 445.480164,37.105934 441.372559,40.858826 
	C440.804230,41.378075 439.136078,40.693531 437.977081,40.566277 
	C438.362793,39.463692 438.739929,38.357929 439.145508,37.262699 
	C439.194031,37.131710 439.401154,37.062695 439.528198,36.957096 
	C447.357178,30.449375 448.500488,30.770216 454.054749,41.346180 
z"/>
<path fill="#A9C6C5" opacity="1.000000" stroke="none" 
	d="
M193.708176,43.154701 
	C197.735443,47.635990 198.069595,52.440407 195.746658,57.278717 
	C193.931366,61.059677 188.598053,62.634220 182.907394,61.122757 
	C181.537628,60.758942 179.992950,58.878056 179.623840,57.417992 
	C179.028015,55.061058 179.318085,52.474846 179.273865,49.984764 
	C179.128708,41.810875 182.884857,39.027664 190.817917,41.480633 
	C191.738998,41.765442 192.545715,42.420143 193.708176,43.154701 
z"/>
<path fill="#9FBEC1" opacity="1.000000" stroke="none" 
	d="
M656.479614,41.380711 
	C661.166138,44.909107 662.553528,50.926170 660.076721,55.644638 
	C657.532471,60.491760 652.175415,61.738686 643.242432,59.314209 
	C643.558960,54.189816 643.620850,48.908810 644.405090,43.737350 
	C644.583496,42.560852 647.169006,41.197964 648.812622,40.926598 
	C651.172424,40.536976 653.684692,41.070118 656.479614,41.380711 
M646.469971,51.017128 
	C646.469971,53.107681 646.469971,55.198235 646.469971,57.860527 
	C648.510681,57.860527 650.311584,58.051369 652.057922,57.823509 
	C656.665710,57.222313 658.589294,54.398235 658.315552,49.360600 
	C658.076050,44.951878 655.444153,43.423183 651.503906,43.103554 
	C645.799988,42.640846 646.959106,46.932785 646.469971,51.017128 
z"/>
<path fill="#2A4C54" opacity="1.000000" stroke="none" 
	d="
M646.503418,50.582245 
	C646.959106,46.932785 645.799988,42.640846 651.503906,43.103554 
	C655.444153,43.423183 658.076050,44.951878 658.315552,49.360600 
	C658.589294,54.398235 656.665710,57.222313 652.057922,57.823509 
	C650.311584,58.051369 648.510681,57.860527 646.469971,57.860527 
	C646.469971,55.198235 646.469971,53.107681 646.503418,50.582245 
z"/>
</svg>